<?xml version="1.0" encoding="UTF-8"?>
<svg id="Layer_2" data-name="Layer 2" xmlns="http://www.w3.org/2000/svg" viewBox="0 0 286.43 286.43">
  <defs>
    <style>
      .cls-1 {
        fill: #fbfbe8;
      }

      .cls-2 {
        fill: #257180;
      }

      .cls-3 {
        fill: #181c14;
      }
    </style>
  </defs>
  <g id="design">
    <g>
      <rect class="cls-1" x="0" y="0" width="286.43" height="286.43" transform="translate(286.43 286.43) rotate(-180)"/>
      <g>
        <g>
          <path class="cls-2" d="M67.24,182.74v35.6h-9.65v-35.6h9.65ZM71.3,218.34h-9.75v-8.22h9.37c1.77,0,3.28-.28,4.53-.84,1.25-.56,2.2-1.53,2.86-2.93s.98-3.33.98-5.79-.33-4.42-.99-5.82c-.66-1.39-1.64-2.37-2.93-2.94-1.29-.56-2.87-.85-4.73-.85h-9.22v-8.22h9.75c3.66,0,6.83.71,9.49,2.14,2.66,1.43,4.72,3.47,6.16,6.13,1.45,2.66,2.17,5.85,2.17,9.56s-.72,6.87-2.16,9.53c-1.44,2.66-3.48,4.7-6.13,6.12-2.64,1.42-5.77,2.13-9.39,2.13Z"/>
          <path class="cls-2" d="M92.98,218.34v-35.6h25.66v7.79h-16.01v6.02h14.67v7.6h-14.67v6.4h15.91v7.79h-25.57Z"/>
          <path class="cls-2" d="M136.35,218.77c-3.09,0-5.79-.46-8.09-1.37s-4.09-2.33-5.36-4.24c-1.27-1.91-1.92-4.36-1.94-7.34h9.17c.06,1.08.34,2,.82,2.75.49.75,1.17,1.31,2.05,1.7s1.95.57,3.19.57c1.04,0,1.9-.13,2.6-.38.7-.26,1.23-.61,1.59-1.06.36-.45.54-.98.54-1.56,0-.54-.17-1.02-.51-1.42-.34-.41-.9-.78-1.68-1.11-.78-.33-1.83-.64-3.15-.91l-3.58-.76c-3.14-.67-5.61-1.81-7.42-3.43-1.81-1.62-2.71-3.82-2.71-6.61,0-2.26.61-4.24,1.84-5.94,1.23-1.7,2.92-3.02,5.08-3.97,2.16-.95,4.65-1.42,7.47-1.42s5.37.48,7.47,1.45c2.09.96,3.71,2.32,4.85,4.06,1.14,1.74,1.72,3.78,1.73,6.1h-9.27c-.08-1.16-.51-2.07-1.28-2.71s-1.94-.97-3.5-.97c-.99,0-1.8.12-2.44.35-.64.23-1.11.55-1.41.97-.3.41-.45.88-.45,1.41,0,.56.16,1.05.49,1.47.33.42.84.79,1.55,1.1s1.62.59,2.74.82l2.92.62c1.96.41,3.64.96,5.05,1.65,1.41.68,2.56,1.48,3.46,2.4.9.92,1.56,1.95,1.98,3.09.42,1.15.63,2.4.63,3.75,0,2.34-.58,4.33-1.73,5.96-1.15,1.63-2.81,2.87-4.96,3.72-2.15.84-4.73,1.27-7.74,1.27Z"/>
          <path class="cls-2" d="M163.72,182.74v35.6h-9.65v-35.6h9.65Z"/>
          <path class="cls-2" d="M185.23,218.82c-3.46,0-6.5-.74-9.12-2.21-2.62-1.47-4.66-3.57-6.13-6.3-1.47-2.72-2.2-5.96-2.2-9.7s.78-7.24,2.35-9.98c1.57-2.73,3.67-4.81,6.3-6.24,2.63-1.43,5.54-2.14,8.75-2.14,2.1,0,4.06.3,5.87.9s3.41,1.45,4.81,2.54,2.53,2.39,3.38,3.88c.85,1.49,1.37,3.13,1.56,4.91h-9.75c-.14-.61-.38-1.15-.7-1.62-.33-.48-.73-.88-1.22-1.21-.49-.33-1.04-.57-1.67-.74-.63-.17-1.33-.25-2.09-.25-1.61,0-2.99.39-4.13,1.16s-2.02,1.89-2.62,3.36c-.6,1.47-.9,3.23-.9,5.28s.29,3.87.86,5.35c.57,1.48,1.42,2.62,2.54,3.4,1.12.79,2.52,1.18,4.19,1.18,1.47,0,2.69-.21,3.67-.65.98-.43,1.71-1.04,2.2-1.83.49-.79.73-1.72.73-2.78l1.67.19h-8.12v-6.88h15.77v4.92c0,3.25-.69,6.03-2.06,8.33-1.37,2.3-3.26,4.06-5.67,5.28s-5.17,1.83-8.28,1.83Z"/>
          <path class="cls-2" d="M236.17,182.74v35.6h-8.03l-12.86-18.69h-.24v18.69h-9.65v-35.6h8.22l12.62,18.64h.29v-18.64h9.65Z"/>
        </g>
        <g>
          <rect class="cls-3" x="163.01" y="75.59" width="16.23" height="94.92"/>
          <g>
            <rect class="cls-3" x="185.81" y="75.59" width="16.23" height="94.92"/>
            <rect class="cls-3" x="185.81" y="155.9" width="23.53" height="14.6"/>
          </g>
          <g>
            <rect class="cls-3" x="212.65" y="75.59" width="16.23" height="94.92"/>
            <rect class="cls-3" x="212.65" y="155.9" width="23.53" height="14.6"/>
          </g>
          <path class="cls-3" d="M141.62,75.59v6.77c0,36.21,1.48,72.94-10.4,72.99-2.97.01-8.53-4.08-13.83-12.45,7.09-13.26,11.63-28.37,11.88-40.99.15-7.36-1.19-13.44-3.97-18.08-3.6-6.04-9.84-9.43-17.04-9.57-7.2.14-13.44,3.54-17.04,9.57-2.77,4.64-4.1,10.73-3.97,18.08.24,12.62,4.79,27.73,11.88,40.99-5,7.03-11.15,13.01-16.14,13.01h-9.19v-80.31h-16.23v94.92h25.42c8.62,0,17.09-4.32,24.62-12.92,6.17,7.92,14.96,13.46,23.71,13.46,18.27,0,22.43-18.87,23.69-24.98,2.82-13.59,2.82-33.53,2.82-63.71v-6.77h-16.23ZM113.06,101.59c-.14,7.17-2.1,14.99-4.79,22.47-2.69-7.48-4.65-15.3-4.79-22.47-.11-5.61,1.01-8.33,1.67-9.46.63-1.05,1.74-2.17,3.12-2.2,1.38.03,2.48,1.14,3.11,2.2.67,1.13,1.78,3.85,1.68,9.46Z"/>
        </g>
      </g>
    </g>
  </g>
</svg>